<svg width="22" height="19" viewBox="0 0 22 19" fill="none" xmlns="http://www.w3.org/2000/svg">
<g clip-path="url(#clip0_2027_10)">
<path d="M-134.619 29.7912C-48.9107 37.7603 1.49492 15.3358 1.49492 15.3358C1.49492 15.3358 -33.9466 40.5309 -135.925 35.6476" fill="#F5F8FA"/>
<path d="M14.0593 19.0238C13.5775 16.003 13.1327 13.1489 12.6602 10.1744L11.9004 10.7953C10.2085 12.2876 8.2628 13.4645 6.15562 14.2701C5.82429 14.4155 5.46209 14.4763 5.10148 14.4472C4.74086 14.4181 4.3931 14.2999 4.08937 14.1034C2.7829 13.2694 1.43011 12.491 0.0865784 11.6941C0.287873 11.3998 0.569767 11.1699 0.898461 11.0318C1.22716 10.8938 1.5887 10.8535 1.93972 10.9157C2.99836 11.0285 4.06254 11.0811 5.12714 11.0733C5.46139 11.068 5.78554 10.9578 6.05371 10.7582C9.76001 7.60766 13.4663 4.44475 17.1726 1.26949C18.1357 0.421643 19.3831 -0.0316963 20.6658 2.7953e-07C21.8147 2.7953e-07 22.2965 0.759839 21.8055 1.85327C21.5341 2.40145 21.1598 2.89224 20.7028 3.29881C19.6187 4.29031 18.4883 5.22621 17.3579 6.16211C17.2112 6.27001 17.0903 6.40907 17.0038 6.56929C16.9173 6.72951 16.8673 6.90691 16.8575 7.08874C16.6166 10.2208 16.3201 13.3528 16.0792 16.4848C16.0771 16.802 15.9975 17.1139 15.8473 17.3933C15.6971 17.6727 15.4809 17.9111 15.2175 18.0879C14.8154 18.3795 14.4288 18.6919 14.0593 19.0238V19.0238Z" fill="#FFBA08"/>
<path d="M3.8484 5.85632C4.71012 5.11501 5.31239 4.15131 6.70226 4.36444C8.09212 4.57756 9.48198 4.58683 10.946 4.68876L11.4185 4.75362C10.3622 5.68026 9.39859 6.45863 8.42569 7.2648C8.37023 7.30509 8.30695 7.33333 8.23992 7.34769C8.1729 7.36205 8.10362 7.36222 8.03653 7.34819C6.73932 6.94048 5.44211 6.52349 4.15418 6.09724C4.06152 6.06944 3.99666 5.97678 3.8484 5.85632Z" fill="#FFBA08"/>
</g>
<defs>
<clipPath id="clip0_2027_10">
<rect width="22" height="19" fill="white"/>
</clipPath>
</defs>
</svg>
